<?xml version="1.0" standalone="no"?>
<!DOCTYPE svg PUBLIC "-//W3C//DTD SVG 20010904//EN"
 "http://www.w3.org/TR/2001/REC-SVG-20010904/DTD/svg10.dtd">
<svg version="1.0" xmlns="http://www.w3.org/2000/svg"
 width="360.000000pt" height="360.000000pt" viewBox="0 0 360.000000 360.000000"
 preserveAspectRatio="xMidYMid meet">

<g transform="translate(0.000000,360.000000) scale(0.100000,-0.100000)"
fill="#000000" stroke="none">
<path d="M0 1800 l0 -1800 1800 0 1800 0 0 363 c-1 302 -3 365 -15 381 -19 25
-19 40 0 32 13 -5 15 156 15 1409 l0 1415 -174 0 -174 0 -32 -37 c-78 -89
-106 -150 -190 -416 l-19 -58 41 48 c65 77 342 347 372 363 29 15 50 8 70 -22
8 -14 -19 -44 -148 -169 -167 -162 -315 -335 -348 -408 -17 -37 -19 -58 -15
-135 3 -53 14 -120 27 -161 l22 -70 31 60 c16 33 48 102 69 154 62 148 113
243 152 280 34 33 36 33 60 17 14 -9 36 -16 50 -16 14 0 37 -5 52 -10 25 -10
26 -13 20 -52 -4 -23 -40 -142 -81 -263 -70 -207 -76 -230 -85 -351 -6 -71
-16 -149 -22 -174 -26 -106 -128 -263 -231 -353 -165 -146 -176 -157 -193
-211 -19 -56 -52 -113 -78 -135 -13 -11 -14 -17 -5 -28 9 -10 9 -19 -1 -37 -8
-16 -9 -35 -4 -57 l8 -34 7 45 6 45 1 -50 c1 -27 -5 -61 -13 -75 l-14 -25 -1
25 c0 14 -5 32 -10 40 -11 16 -5 -48 10 -108 5 -19 5 -32 -1 -32 -5 0 -9 7 -9
15 0 8 -6 14 -12 12 -8 -1 -19 22 -28 59 -11 45 -19 59 -30 56 -11 -4 -9 1 5
17 l19 22 -25 -9 c-21 -8 -25 -7 -26 9 -1 10 2 19 8 19 5 0 9 -5 9 -11 0 -5 5
-7 10 -4 6 3 7 18 4 33 -4 19 -3 23 4 13 8 -11 10 -8 9 12 -2 21 -6 25 -19 21
-14 -4 -16 -1 -11 12 4 12 2 15 -8 12 -8 -3 -13 -12 -11 -22 2 -9 -2 -16 -8
-16 -11 0 -14 33 -3 44 4 4 8 19 9 34 2 38 3 39 15 22 9 -13 10 -13 7 0 -3 8
-14 19 -26 25 -18 8 -21 17 -19 53 1 25 8 48 17 55 12 9 13 9 3 -3 -7 -8 -13
-18 -13 -24 0 -5 6 -1 14 9 8 11 11 24 8 30 -4 5 -7 22 -7 37 0 24 2 25 14 13
11 -11 12 -17 2 -29 -10 -12 -9 -14 6 -12 11 2 17 10 15 21 -2 10 1 14 7 10 7
-4 8 0 4 10 -4 12 -8 13 -13 5 -12 -19 -17 8 -17 95 -1 53 2 72 7 55 4 -14 8
-48 9 -76 1 -33 7 -56 16 -64 12 -10 15 -10 15 1 1 8 3 64 6 126 5 96 3 123
-14 180 -12 37 -24 102 -28 143 -6 70 -4 83 30 180 20 58 52 128 70 155 53 81
116 291 116 390 0 57 28 176 77 328 54 168 91 254 133 308 l32 39 -1566 0
-1566 0 0 -1800z m1760 1536 c0 -3 -4 -17 -10 -31 -11 -29 -30 -25 -30 6 0 11
5 17 10 14 6 -3 10 -1 10 4 0 6 5 11 10 11 6 0 10 -2 10 -4z m59 -4 c12 9 12
7 -1 -7 -16 -17 -16 -19 0 -32 9 -8 11 -12 5 -8 -9 4 -11 1 -7 -9 3 -9 1 -16
-4 -16 -6 0 -14 16 -18 35 -4 20 -10 32 -17 28 -6 -4 -7 -1 -2 6 5 9 10 10 18
2 7 -7 15 -7 26 1z m54 -9 c-18 -7 -16 -28 3 -47 16 -17 39 -12 28 5 -3 5 -10
7 -15 4 -13 -9 -11 8 4 30 11 14 20 16 43 10 16 -4 23 -10 16 -12 -8 -3 -10
-9 -4 -16 11 -14 4 -77 -8 -77 -9 0 -6 -47 4 -57 3 -3 6 5 6 18 0 20 5 24 30
24 24 0 29 -3 24 -18 -5 -16 -3 -17 15 -5 12 7 19 18 17 23 -2 6 3 22 10 36
14 23 14 23 9 2 -7 -24 -3 -26 33 -17 12 4 22 13 22 22 0 12 3 13 12 4 9 -9 6
-17 -12 -37 -25 -26 -17 -34 13 -11 9 7 17 20 17 29 0 9 4 19 10 22 6 3 7 -1
4 -9 -4 -11 0 -16 15 -16 23 0 28 -14 10 -26 -6 -3 -16 0 -21 7 -7 10 -8 4 -5
-18 3 -26 -1 -34 -16 -39 -10 -3 -16 -8 -14 -11 3 -3 15 -2 27 2 15 5 19 12
15 26 -6 18 -5 19 13 8 16 -10 18 -17 11 -31 -5 -10 -15 -18 -21 -18 -6 0 -17
-8 -24 -17 -7 -10 -17 -19 -23 -19 -22 -3 -23 -4 -11 -19 9 -10 9 -15 1 -15
-6 0 -11 -5 -11 -12 0 -6 12 -1 26 13 14 13 29 23 32 21 4 -2 8 2 11 9 2 8 -3
10 -15 6 -17 -6 -17 -6 1 8 11 8 25 19 32 25 16 13 36 13 28 0 -7 -11 3 -13
54 -11 38 1 38 -1 -4 -23 -28 -15 -28 -16 -7 -16 13 0 32 5 42 10 11 6 21 6
24 1 3 -5 -3 -11 -13 -14 -15 -4 -19 -13 -18 -43 2 -37 4 -39 35 -39 33 0 33
0 13 -16 -21 -17 -29 -35 -11 -24 5 3 18 1 27 -4 10 -6 12 -11 6 -11 -7 0 -13
-4 -13 -9 0 -5 19 -7 43 -4 39 4 41 3 23 -11 -10 -8 -23 -13 -28 -10 -4 3 -3
-7 4 -21 7 -15 14 -22 16 -16 2 6 10 11 18 11 9 0 12 -4 9 -10 -3 -5 0 -10 7
-10 9 0 9 -3 -2 -10 -13 -9 -13 -11 0 -19 12 -8 10 -12 -9 -19 -20 -7 -21 -10
-8 -15 10 -4 17 -2 17 3 0 5 7 7 16 3 15 -5 15 -7 -1 -15 -9 -6 -26 -8 -36 -5
-17 4 -18 3 -8 -9 6 -8 17 -14 24 -14 7 0 16 -7 19 -16 5 -12 1 -14 -17 -9
-18 5 -16 3 7 -14 17 -11 33 -18 38 -15 4 3 5 -1 2 -9 -3 -8 -1 -18 5 -22 8
-4 8 -12 1 -25 -8 -15 -5 -23 12 -40 26 -24 12 -27 -20 -5 -20 15 -21 15 -15
-2 3 -10 11 -24 17 -32 8 -11 8 -13 -1 -8 -6 4 -19 4 -28 1 -15 -6 -13 -10 10
-31 14 -14 25 -29 23 -35 -4 -12 -23 -11 -23 1 0 5 -4 13 -8 18 -5 4 -8 4 -7
-2 5 -22 -1 -27 -15 -15 -11 9 -12 16 -5 20 6 4 0 16 -17 31 -14 13 -23 18
-19 12 8 -14 -3 -17 -19 -5 -12 9 -18 30 -17 58 1 12 -5 27 -12 33 -10 8 -12
24 -9 51 5 33 3 40 -12 40 -11 0 -15 5 -11 15 3 8 -3 20 -14 28 -11 8 -17 16
-14 20 9 8 -27 43 -54 51 -19 6 -23 3 -28 -23 -8 -37 -11 -38 -48 -5 -21 19
-26 28 -17 34 9 5 0 9 -23 12 -50 6 -63 -5 -34 -28 13 -11 34 -34 47 -52 13
-18 26 -31 28 -28 3 3 14 -6 25 -19 25 -32 36 -32 44 0 9 36 21 22 18 -20 -2
-20 1 -33 5 -30 5 3 11 -1 14 -9 4 -9 0 -12 -13 -9 -14 4 -20 -3 -25 -27 -4
-19 -3 -36 4 -43 8 -8 11 -6 11 6 0 26 14 20 28 -12 10 -22 32 -163 30 -191
-1 -20 4 -30 12 -25 6 3 10 -1 10 -10 0 -9 -4 -14 -8 -11 -5 3 -9 -1 -9 -9 0
-8 5 -13 10 -12 5 1 12 -4 14 -10 3 -7 -1 -13 -8 -13 -8 0 -6 -7 6 -20 10 -11
16 -23 13 -26 -3 -3 -15 8 -26 23 -11 16 -42 40 -68 54 -41 21 -60 24 -138 23
-106 -1 -156 -6 -150 -15 5 -9 -27 -21 -34 -14 -3 3 1 5 9 6 8 0 6 4 -6 9 -14
5 -24 3 -31 -6 -10 -12 -15 -8 -33 21 -11 20 -21 49 -21 64 0 16 -7 34 -16 41
-14 12 -15 4 -14 -76 0 -49 0 -97 0 -107 -1 -21 -25 -18 -25 3 0 7 -6 15 -14
18 -9 3 -11 0 -6 -9 6 -11 5 -11 -4 -3 -10 9 -10 17 -1 34 7 13 8 20 2 16 -6
-4 -12 6 -15 21 -3 24 -4 23 -12 -15 -4 -23 -13 -45 -19 -49 -6 -3 -8 -3 -4 2
13 14 -13 47 -33 42 -11 -3 -16 -1 -13 5 4 6 -2 8 -17 4 -13 -3 -19 -3 -12 0
8 4 8 12 -3 32 -8 15 -14 35 -14 45 0 11 -4 15 -12 11 -6 -4 -8 -3 -5 3 4 6 1
22 -6 37 -11 19 -17 22 -25 14 -9 -9 -12 -4 -12 21 0 25 4 32 15 27 9 -3 15 0
15 9 0 8 6 14 12 13 20 -5 21 42 1 65 -10 11 -12 17 -5 13 6 -4 12 -2 12 4 0
6 -7 13 -15 16 -8 4 -15 11 -15 16 0 6 7 8 15 4 8 -3 15 -1 15 3 0 5 -7 11
-15 15 -8 3 -15 12 -15 21 0 8 -7 15 -16 15 -12 0 -14 7 -9 30 5 22 3 30 -7
30 -10 0 -9 3 2 10 13 9 13 11 0 19 -16 11 -15 12 15 29 19 11 19 12 -4 9 -14
-1 -26 4 -28 13 -4 13 -3 13 5 1 9 -12 14 -12 36 2 14 10 25 22 23 28 -1 6 7
16 18 22 11 7 22 13 24 15 3 1 -2 8 -11 15 -9 6 -18 32 -21 57 -3 25 -9 55
-12 65 -5 14 -4 16 3 7 7 -11 10 -10 14 6 4 16 1 18 -15 14 -20 -5 -20 -5 -1
15 19 19 19 19 33 -5 9 -18 15 -21 21 -12 8 13 0 53 -19 88 -6 11 -11 24 -10
29 0 4 14 -19 30 -52 25 -51 32 -56 31 -25 0 3 -3 15 -7 28 -5 19 -3 22 16 19
16 -3 26 -13 31 -35 5 -18 11 -32 13 -32 3 0 3 11 -1 24 -4 19 1 28 27 47 26
18 31 20 26 6 -3 -9 -2 -17 3 -17 6 0 10 -7 10 -16 0 -8 5 -12 10 -9 6 3 7 17
4 30 -3 13 0 26 6 30 8 5 10 2 6 -11 -3 -11 -1 -26 4 -34 9 -13 10 -13 11 0 1
8 2 22 3 30 1 8 -3 21 -8 29 -7 9 -5 17 6 25 11 8 14 17 7 27 -14 22 -11 29
14 28 12 0 16 -3 10 -6z m-243 -30 c0 -27 -1 -28 -60 -28 -47 -1 -63 -5 -75
-20 -12 -16 -16 -17 -23 -7 -8 11 -10 11 -15 -2 -4 -9 -14 -13 -26 -11 -13 2
-26 -4 -35 -16 -7 -11 -19 -19 -27 -17 -7 2 -13 -2 -14 -9 0 -20 -15 -27 -15
-7 -1 18 -1 18 -13 -1 -7 -12 -20 -19 -30 -17 -10 2 -26 -2 -35 -10 -15 -12
-16 -11 -3 5 7 9 40 33 72 53 33 19 59 39 59 44 0 10 122 48 173 53 21 3 41 7
44 11 14 13 23 5 23 -21z m41 3 c1 5 1 11 1 14 0 3 9 7 20 7 20 2 20 1 2 -12
-18 -13 -18 -14 -1 -15 12 0 17 -8 16 -27 0 -26 -1 -26 -9 -7 -11 27 -27 38
-35 24 -3 -5 -12 -10 -18 -10 -7 0 -6 4 3 10 10 6 11 10 3 10 -7 0 -13 8 -13
18 1 15 2 15 15 -2 8 -11 16 -16 16 -10z m317 -8 c10 -12 10 -18 1 -24 -7 -4
-9 -3 -5 4 3 6 2 13 -4 17 -5 3 -10 11 -10 17 0 6 1 9 3 7 1 -2 8 -11 15 -21z
m42 12 c12 -7 12 -10 1 -10 -7 0 -11 -6 -8 -13 3 -8 1 -20 -4 -28 -9 -14 -10
-11 -12 29 -1 9 -6 20 -12 24 -15 12 17 9 35 -2z m-240 -26 c0 -8 -4 -13 -9
-10 -19 12 -41 -6 -35 -29 3 -13 0 -26 -7 -31 -9 -5 -10 -2 -6 9 3 10 2 17 -3
17 -6 0 -10 12 -10 26 0 14 4 23 9 19 5 -3 12 -1 16 5 10 16 45 12 45 -6z
m-133 -46 c-3 -8 -6 -5 -6 6 -1 11 2 17 5 13 3 -3 4 -12 1 -19z m-57 -12 c0
-11 -19 -15 -25 -6 -3 5 1 10 9 10 9 0 16 -2 16 -4z m656 -8 c5 -8 2 -9 -9 -5
-9 3 -19 2 -22 -4 -4 -5 -11 -6 -18 -2 -7 4 -4 9 9 14 27 11 32 10 40 -3z
m-655 -22 c-15 -8 -20 -16 -12 -20 12 -8 15 -26 4 -26 -5 0 -13 11 -20 25 -6
14 -8 23 -4 21 4 -3 13 -1 21 5 8 5 20 9 25 8 6 0 -1 -6 -14 -13z m-304 -51
c0 -8 -4 -12 -9 -9 -5 3 -6 10 -3 15 9 13 12 11 12 -6z m946 0 c-3 -9 -8 -14
-10 -11 -3 3 -2 9 2 15 9 16 15 13 8 -4z m-103 -51 c0 -8 -19 -13 -24 -6 -3 5
1 9 9 9 8 0 15 -2 15 -3z m245 -4 c3 -5 2 -10 -4 -10 -5 0 -13 5 -16 10 -3 6
-2 10 4 10 5 0 13 -4 16 -10z m-1189 -23 c-3 -33 -14 -47 -38 -47 -17 0 -18 3
-8 14 6 8 19 12 27 9 10 -4 14 -2 10 4 -4 6 -4 18 -1 27 9 23 13 20 10 -7z
m1129 -37 c-3 -5 -10 -10 -16 -10 -5 0 -9 5 -9 10 0 6 7 10 16 10 8 0 12 -4 9
-10z m-734 -27 c-8 -15 -10 -15 -11 -2 0 17 10 32 18 25 2 -3 -1 -13 -7 -23z
m-441 -4 c0 -4 -13 -14 -30 -23 -16 -8 -30 -10 -30 -5 0 5 5 9 10 9 6 0 10 6
10 13 0 7 9 13 20 13 11 0 20 -3 20 -7z m-10 -118 c0 -14 -46 -40 -82 -46 -23
-4 -29 -2 -18 4 8 5 17 8 21 5 4 -2 9 0 11 4 2 7 40 30 66 41 1 1 2 -3 2 -8z
m1014 -59 c6 -14 -3 -10 -46 22 -16 11 -28 23 -28 27 0 12 68 -34 74 -49z m84
2 c14 -15 14 -16 -3 -13 -10 2 -20 10 -23 17 -5 17 6 15 26 -4z m168 -292
c-13 -13 -16 -13 -29 0 -13 13 -12 15 14 15 26 0 28 -2 15 -15z m-1 -31 c-3
-5 -1 -12 5 -16 13 -8 13 -45 1 -45 -5 0 -11 -8 -14 -17 -2 -10 -3 5 -1 32 2
57 2 55 10 55 3 0 3 -4 -1 -9z m-838 -73 c-3 -8 -6 -5 -6 6 -1 11 2 17 5 13 3
-3 4 -12 1 -19z m877 -4 c-7 -3 -7 -29 -1 -82 4 -42 5 -97 1 -122 -10 -64 -11
-130 -2 -130 11 0 10 -58 -1 -64 -12 -8 -32 50 -25 72 4 12 3 13 -3 4 -6 -7
-18 -10 -29 -6 -11 3 -15 2 -9 -3 18 -14 45 -78 35 -81 -17 -6 -24 -73 -9 -84
10 -7 8 -7 -8 -3 -18 5 -22 3 -17 -9 4 -11 1 -16 -10 -16 -9 0 -16 -4 -16 -10
0 -5 8 -10 17 -10 14 0 13 -3 -6 -16 -17 -12 -20 -19 -10 -24 9 -6 9 -12 -4
-24 -8 -9 -20 -16 -26 -16 -6 0 -11 -7 -11 -15 0 -21 9 -19 31 7 15 16 19 18
19 5 0 -8 -6 -18 -12 -20 -8 -4 -7 -6 4 -6 28 -2 26 -25 -5 -54 l-31 -27 -21
20 c-26 24 -43 27 -24 3 8 -9 13 -26 12 -37 -3 -20 -2 -21 6 -1 8 17 10 15 10
-12 1 -25 -3 -31 -14 -27 -14 6 -19 20 -18 52 1 14 -7 15 -22 4 -12 -8 -13
-37 -2 -48 11 -12 8 -26 -5 -18 -7 5 -9 2 -5 -9 4 -11 2 -14 -9 -10 -10 3 -12
12 -8 26 6 20 6 20 -11 3 -14 -14 -20 -15 -27 -4 -7 10 -9 10 -7 -2 4 -44 -2
-91 -12 -85 -6 4 -8 14 -5 22 3 8 2 12 -3 8 -5 -3 -15 8 -23 25 -7 16 -16 30
-20 30 -5 0 -8 8 -8 17 0 9 -3 14 -6 10 -10 -9 -32 16 -27 30 3 7 0 13 -5 13
-6 0 -14 10 -18 22 -3 12 -15 31 -25 42 -11 11 -19 26 -19 33 0 7 -4 13 -9 13
-5 0 -12 8 -16 19 -3 10 -14 29 -25 41 -23 26 -26 56 -7 63 6 2 8 8 4 13 -5 5
-13 1 -18 -9 -14 -24 -33 -22 -19 2 15 28 13 33 -10 26 -16 -5 -20 -2 -20 14
0 12 -4 21 -10 21 -5 0 -10 4 -10 10 0 5 8 6 17 3 12 -5 15 -2 10 10 -8 20 0
22 17 4 7 -7 11 -19 9 -27 -2 -8 3 -3 12 13 9 15 20 27 26 27 6 0 8 -4 5 -8
-3 -5 5 -8 17 -7 30 3 42 -5 26 -17 -10 -7 -8 -8 9 -5 12 3 20 2 17 -3 -8 -13
23 -33 41 -26 14 5 15 4 4 -9 -14 -16 -10 -18 14 -9 23 9 19 50 -6 68 -22 15
-21 16 27 16 99 1 171 32 211 91 20 31 34 33 49 7 9 -15 11 -14 22 8 6 13 7
22 2 18 -5 -3 -9 4 -9 15 0 14 5 19 15 15 10 -4 15 0 13 12 0 11 0 35 1 54 1
26 4 31 11 20 14 -22 20 -7 11 26 -5 16 -10 23 -10 17 -1 -7 -5 -13 -9 -13
-10 0 -9 91 2 108 4 6 15 12 24 11 9 0 12 -3 6 -5z m43 -68 c-3 -8 2 -16 12
-19 9 -2 27 -30 41 -65 13 -33 28 -58 34 -55 5 3 6 1 2 -5 -3 -6 12 -45 34
-86 22 -41 44 -97 49 -123 l9 -47 -18 24 c-10 14 -18 27 -17 30 1 3 -2 5 -6 5
-4 0 -26 32 -47 70 -22 39 -40 64 -40 58 0 -25 -19 -13 -36 23 -11 22 -20 32
-26 26 -6 -6 -4 -22 6 -44 12 -24 14 -42 8 -58 -8 -22 -9 -20 -19 17 -6 23
-11 83 -12 134 -1 51 -5 97 -8 102 -3 5 1 13 8 18 21 13 32 11 26 -5z m120
-153 c-3 -10 -5 -4 -5 12 0 17 2 24 5 18 2 -7 2 -21 0 -30z m-746 -40 c7 -18
6 -28 -1 -33 -7 -5 -6 -11 4 -19 8 -6 16 -8 18 -4 3 4 3 3 2 -4 -2 -7 1 -15 6
-18 13 -8 13 -25 0 -25 -5 0 -10 7 -10 15 0 8 -8 19 -17 24 -16 8 -18 3 -18
-42 0 -29 -4 -61 -9 -72 -6 -16 -6 -17 3 -5 9 12 11 11 11 -7 0 -13 -5 -23
-10 -23 -10 0 -8 -30 5 -61 3 -10 2 -20 -4 -24 -16 -9 -13 -41 4 -55 17 -14
20 -50 4 -50 -5 0 -8 -4 -5 -9 3 -4 -9 -5 -27 -2 -31 7 -32 9 -35 59 -1 30 2
52 7 52 6 0 9 -6 7 -12 -1 -7 -1 -10 1 -5 3 4 9 5 14 2 5 -4 6 1 3 9 -3 9 -12
16 -18 16 -20 0 -40 158 -30 238 4 37 7 70 6 75 -1 4 16 7 38 7 35 0 42 -4 51
-27z m759 13 c0 -3 -4 -8 -10 -11 -5 -3 -10 -1 -10 4 0 6 5 11 10 11 6 0 10
-2 10 -4z m-173 -38 c-3 -8 -6 -5 -6 6 -1 11 2 17 5 13 3 -3 4 -12 1 -19z
m100 -30 c-3 -8 -6 -5 -6 6 -1 11 2 17 5 13 3 -3 4 -12 1 -19z m-597 -44 c0
-2 -9 0 -20 6 -11 6 -20 13 -20 16 0 2 9 0 20 -6 11 -6 20 -13 20 -16z m580
-155 c0 -5 -4 -9 -10 -9 -5 0 -10 7 -10 16 0 8 5 12 10 9 6 -3 10 -10 10 -16z
m-63 -11 c-3 -8 -6 -5 -6 6 -1 11 2 17 5 13 3 -3 4 -12 1 -19z m-1 -45 c-2
-10 -7 -56 -11 -103 -3 -47 -11 -86 -16 -88 -5 -2 -9 -11 -9 -20 -1 -15 -2
-14 -11 2 -9 14 -8 20 2 26 7 5 14 33 16 67 4 60 20 133 29 133 3 0 3 -8 0
-17z m-79 -35 c-3 -8 -6 -5 -6 6 -1 11 2 17 5 13 3 -3 4 -12 1 -19z m-390
-104 c3 -9 16 -27 28 -40 27 -29 56 -86 48 -94 -3 -3 -8 1 -10 8 -6 16 -51 36
-75 33 -10 -1 -18 3 -18 8 0 6 6 11 13 11 6 0 1 9 -13 20 -14 11 -19 20 -12
20 7 0 11 4 8 9 -8 12 3 41 15 41 5 0 12 -7 16 -16z m373 -14 c0 -5 -5 -10
-11 -10 -5 0 -7 5 -4 10 3 6 8 10 11 10 2 0 4 -4 4 -10z m-53 -42 c-3 -8 -6
-5 -6 6 -1 11 2 17 5 13 3 -3 4 -12 1 -19z m-37 -63 c0 -5 -5 -3 -10 5 -5 8
-10 20 -10 25 0 6 5 3 10 -5 5 -8 10 -19 10 -25z m157 -12 c-3 -10 -5 -4 -5
12 0 17 2 24 5 18 2 -7 2 -21 0 -30z m-397 13 c0 -3 -4 -8 -10 -11 -5 -3 -10
-1 -10 4 0 6 5 11 10 11 6 0 10 -2 10 -4z m180 -26 c0 -21 -4 -28 -14 -24 -8
3 -16 -2 -19 -13 -3 -12 -5 -9 -6 10 -1 18 4 27 14 27 18 0 20 16 3 23 -8 3
-6 6 5 6 12 1 17 -7 17 -29z m95 21 c3 -5 1 -12 -5 -16 -5 -3 -10 1 -10 9 0
18 6 21 15 7z m278 -5 c7 -17 -20 -30 -29 -14 -4 7 -3 8 4 4 7 -4 12 -1 12 8
0 20 6 20 13 2z m-338 -6 c3 -5 -1 -10 -9 -10 -9 0 -16 5 -16 10 0 6 4 10 9
10 6 0 13 -4 16 -10z m-205 -40 c0 -23 -16 -35 -26 -19 -5 8 -3 9 6 4 10 -6
12 -1 8 18 -3 15 -1 24 3 21 5 -3 9 -14 9 -24z m532 11 c18 9 18 8 9 -10 -6
-11 -11 -32 -12 -48 l-1 -28 -8 30 c-4 17 -10 37 -12 45 -3 8 -3 12 -1 8 3 -5
14 -3 25 3z m-507 -21 c3 -5 1 -10 -4 -10 -6 0 -11 5 -11 10 0 6 2 10 4 10 3
0 8 -4 11 -10z m128 -25 c-3 -9 -8 -14 -10 -11 -3 3 -2 9 2 15 9 16 15 13 8
-4z m593 -58 c-2 -7 -5 -4 -5 6 -1 9 -6 17 -12 17 -5 0 -7 5 -3 11 9 15 28
-16 20 -34z m-930 11 c4 -7 3 -8 -4 -4 -7 4 -12 2 -12 -5 0 -7 -3 -10 -6 -6
-6 5 3 27 11 27 2 0 7 -5 11 -12z m339 -6 c-3 -3 -11 0 -18 7 -9 10 -8 11 6 5
10 -3 15 -9 12 -12z m409 2 c3 -8 2 -12 -4 -9 -6 3 -10 10 -10 16 0 14 7 11
14 -7z m235 -17 c0 -21 -1 -21 -9 -2 -12 28 -12 37 0 30 6 -3 10 -16 9 -28z
m-875 -18 c-7 -12 100 -39 155 -39 28 0 50 3 50 8 -4 23 3 41 17 46 13 5 14 3
7 -6 -5 -7 -10 -23 -11 -35 -1 -20 4 -22 41 -23 67 0 228 -23 246 -35 5 -3 2
-23 -7 -45 -14 -38 -17 -40 -46 -34 -17 4 -51 8 -76 9 -25 2 -90 7 -145 13
-127 13 -143 13 -150 1 -4 -5 -11 -9 -16 -9 -6 0 -8 4 -5 9 13 20 -92 36 -120
18 -6 -3 -16 -2 -24 3 -12 7 -11 10 3 16 17 6 16 8 -3 21 -16 11 -20 23 -18
58 2 23 6 41 10 39 4 -2 9 0 12 5 3 5 23 4 45 -2 22 -6 38 -14 35 -18z m396
17 c0 -3 -4 -8 -10 -11 -5 -3 -10 -1 -10 4 0 6 5 11 10 11 6 0 10 -2 10 -4z
m275 -25 c-6 -21 -25 -29 -25 -11 0 6 5 10 10 10 6 0 10 8 10 17 0 9 3 14 6
10 3 -3 3 -15 -1 -26z m191 -78 c-2 -18 -1 -33 5 -33 5 0 9 -7 9 -16 0 -14 -3
-14 -15 -4 -12 10 -15 9 -15 -8 0 -11 -3 -27 -6 -36 -3 -9 -1 -16 5 -16 6 0
11 7 11 15 0 8 5 15 10 15 13 0 13 -6 -1 -31 -5 -11 -14 -17 -19 -14 -4 3 -6
-5 -2 -17 3 -14 1 -19 -6 -14 -8 5 -10 2 -6 -8 7 -19 -5 -20 -29 -2 -15 12
-15 15 -2 26 19 15 19 27 1 45 -12 12 -11 19 3 49 17 37 36 49 27 19 -2 -10
-8 -29 -11 -42 -4 -14 -3 -21 3 -18 16 11 36 125 25 150 -6 12 -8 29 -5 37 9
23 24 -60 18 -97z m-603 77 c-3 -11 -9 -20 -15 -20 -5 0 -4 9 2 20 6 11 12 20
14 20 2 0 2 -9 -1 -20z m395 -34 c14 5 14 4 2 -4 -18 -13 -30 -6 -29 16 1 16
2 16 6 0 3 -11 11 -15 21 -12z m9 -38 c-3 -8 -6 -5 -6 6 -1 11 2 17 5 13 3 -3
4 -12 1 -19z m-1630 -43 c-1 -21 -4 -30 -9 -22 -5 8 -8 6 -8 -7 0 -11 -3 -17
-6 -13 -6 5 14 77 21 77 2 0 3 -16 2 -35z m1645 16 c8 12 9 12 6 0 -6 -22 -28
-25 -27 -4 0 12 2 14 6 4 5 -11 7 -11 15 0z m-324 -86 c-3 -3 -9 2 -12 12 -6
14 -5 15 5 6 7 -7 10 -15 7 -18z m345 -5 c3 -11 1 -20 -4 -20 -5 0 -9 9 -9 20
0 11 2 20 4 20 2 0 6 -9 9 -20z m215 -2 c7 11 11 11 19 0 13 -16 34 -90 28
-96 -5 -5 -8 3 -24 58 l-11 35 6 -40 c3 -22 7 -49 9 -60 1 -11 5 -35 10 -54 4
-21 4 -31 -2 -28 -6 4 -8 -5 -6 -21 4 -22 2 -24 -7 -12 -10 12 -11 11 -7 -7 3
-13 0 -26 -5 -30 -6 -3 -9 -2 -6 3 3 5 2 18 -3 29 -6 16 -8 13 -9 -15 -1 -19
-4 -29 -7 -22 -7 19 -19 14 -19 -8 0 -22 16 -26 34 -8 9 9 12 8 12 -5 0 -9 -3
-16 -7 -16 -30 5 -44 -4 -49 -31 -9 -42 -25 -38 -19 5 2 21 0 35 -7 35 -6 0
-8 -11 -5 -25 3 -16 0 -24 -7 -22 -6 2 -11 11 -11 20 0 9 -6 22 -13 29 -6 6
-11 28 -11 48 1 34 2 34 8 6 3 -16 13 -32 21 -34 12 -4 13 -2 3 9 -8 10 -9 27
-4 52 5 20 5 35 1 32 -16 -10 -19 12 -5 31 25 33 17 52 -9 22 -33 -39 -41 -35
-14 7 26 39 48 46 48 14 0 -11 5 -17 10 -14 7 4 6 13 -1 26 -13 26 -3 62 11
39 6 -8 10 -10 10 -5 0 6 5 3 11 -5 8 -12 9 -10 4 9 -5 15 -3 21 3 17 6 -3 13
-2 17 4 5 9 -7 14 -27 11 -4 0 -5 6 -1 15 5 13 7 13 14 2 7 -11 11 -11 17 0z
m-221 -60 c-3 -8 -6 -5 -6 6 -1 11 2 17 5 13 3 -3 4 -12 1 -19z m103 -7 c0 -5
-7 -12 -16 -15 -8 -3 -13 -10 -10 -15 3 -5 -1 -22 -9 -37 l-14 -28 3 37 c3 36
20 67 37 67 5 0 9 -4 9 -9z m-910 -22 c0 -6 -4 -7 -10 -4 -18 11 -10 -11 10
-30 11 -10 23 -15 27 -11 4 4 1 11 -7 16 -17 11 -9 13 14 4 9 -3 17 -18 17
-33 2 -24 2 -24 6 -3 3 14 -3 33 -14 45 -18 21 -18 21 1 7 11 -8 22 -15 25
-15 3 0 5 -4 3 -8 -1 -5 2 -6 7 -2 6 3 7 13 4 22 -4 11 -3 14 5 9 7 -4 15 -1
18 8 6 16 24 12 24 -5 0 -6 -4 -8 -9 -4 -5 3 -12 1 -15 -4 -3 -5 1 -11 9 -15
15 -5 39 25 30 38 -3 3 -2 3 2 0 4 -3 8 -17 9 -32 3 -41 8 -56 24 -70 13 -11
11 -11 -8 -2 -12 6 -20 14 -18 19 3 4 -4 12 -14 18 -15 10 -19 8 -23 -9 -8
-27 3 -50 19 -44 7 3 16 1 19 -3 2 -5 -6 -11 -20 -13 -18 -4 -25 -1 -25 11 0
9 -9 27 -20 41 -11 14 -19 18 -18 10 2 -8 9 -20 17 -26 11 -9 11 -15 -2 -40
l-16 -29 6 33 c4 22 2 32 -7 32 -7 0 -10 -7 -6 -16 3 -9 1 -14 -5 -12 -6 2 -9
6 -8 8 4 9 -22 52 -28 46 -3 -3 -14 4 -24 15 -9 11 -19 20 -21 19 -12 -5 -36
14 -32 25 3 8 12 11 20 8 8 -3 14 0 14 7 0 6 5 8 10 5 6 -3 10 -11 10 -16z
m23 6 c-3 -9 -8 -14 -10 -11 -3 3 -2 9 2 15 9 16 15 13 8 -4z m207 6 c0 -5 -7
-17 -16 -26 -15 -14 -19 -15 -32 -2 -8 8 -11 20 -8 26 9 13 56 15 56 2z m27
-10 c-1 -11 -6 -17 -14 -14 -10 4 -11 9 -2 19 15 19 18 18 16 -5z m151 -16
c-6 -14 -13 -23 -15 -21 -5 5 15 46 22 46 3 0 -1 -11 -7 -25z m-218 -43 c0
-15 -2 -15 -10 -2 -13 20 -13 33 0 25 6 -3 10 -14 10 -23z m35 18 c-3 -5 -12
-10 -18 -10 -7 0 -6 4 3 10 19 12 23 12 15 0z m61 -35 c-15 -15 -59 -9 -50 7
3 5 11 5 19 -2 16 -13 30 4 19 23 -6 8 -3 8 9 -1 14 -12 14 -16 3 -27z m91 13
c-3 -8 -6 -5 -6 6 -1 11 2 17 5 13 3 -3 4 -12 1 -19z m-478 -42 c-1 -16 -2
-17 -6 -3 -2 9 -9 17 -14 17 -6 0 -7 -5 -3 -12 4 -7 3 -8 -4 -4 -16 9 -3 36
14 29 8 -3 13 -15 13 -27z m440 8 c-17 -21 -54 -40 -44 -23 15 24 40 46 48 42
4 -3 2 -11 -4 -19z m-334 -12 c-1 -17 -7 -22 -23 -22 -7 0 -8 32 -3 47 4 11
27 -12 26 -25z m895 -8 c0 -19 -4 -33 -9 -29 -8 4 -9 48 -2 63 5 12 11 -5 11
-34z m198 5 c-3 -8 -7 -3 -11 10 -4 17 -3 21 5 13 5 -5 8 -16 6 -23z m-827 -6
c13 -16 12 -17 -3 -4 -17 13 -22 21 -14 21 2 0 10 -8 17 -17z m-231 -18 c14
-19 14 -19 -2 -6 -10 7 -18 18 -18 24 0 6 1 8 3 6 1 -2 9 -13 17 -24z m1041
-18 c-10 -9 -11 -8 -5 6 3 10 9 15 12 12 3 -3 0 -11 -7 -18z m190 -24 c19 -22
20 -24 3 -10 -17 14 -23 15 -27 5 -3 -7 -4 -3 -4 10 1 12 2 22 2 22 1 0 12
-12 26 -27z m-2074 -40 c0 -7 -3 -11 -5 -8 -6 5 -42 -34 -42 -45 0 -5 -6 -10
-13 -13 -23 -9 -12 37 11 48 12 5 22 15 22 21 0 6 6 11 13 11 8 0 14 -6 14
-14z m1730 -55 c-3 -8 -6 -5 -6 6 -1 11 2 17 5 13 3 -3 4 -12 1 -19z m26 -8
c3 -11 1 -18 -4 -14 -5 3 -9 0 -9 -7 0 -7 -2 -10 -5 -8 -4 5 5 49 10 49 1 0 5
-9 8 -20z m-56 -32 c-3 -8 -6 -5 -6 6 -1 11 2 17 5 13 3 -3 4 -12 1 -19z m95
-8 c-4 -3 -10 -9 -13 -13 -3 -5 -9 -1 -12 8 -4 9 -3 13 3 10 6 -3 10 2 10 12
0 15 2 16 10 3 5 -8 6 -17 2 -20z m48 -47 c-2 -27 -2 -70 -1 -97 l1 -49 22 19
c12 10 18 14 15 7 -4 -6 0 -19 9 -28 13 -12 19 -13 31 -4 7 7 12 18 9 25 -3 7
-1 16 3 19 5 2 11 -5 15 -18 10 -39 6 -77 -9 -83 -23 -9 -18 -26 6 -19 15 5
19 4 15 -4 -9 -14 18 -54 29 -43 5 4 5 1 1 -5 -4 -7 -19 -13 -34 -13 -17 0
-22 3 -15 8 9 6 2 23 -27 61 -22 29 -37 57 -34 62 3 5 -2 9 -10 9 -9 0 -15 -6
-13 -12 1 -7 -4 -12 -10 -11 -7 2 -13 -4 -13 -12 0 -8 5 -15 10 -15 6 0 10 -9
10 -21 0 -11 5 -17 10 -14 6 3 10 -3 10 -13 0 -11 7 -22 15 -26 8 -3 14 -13
14 -23 -1 -17 -2 -17 -6 0 -2 9 -9 17 -14 17 -14 0 -33 21 -42 44 -6 15 -10
17 -20 7 -9 -9 -9 -14 3 -21 13 -9 13 -11 0 -20 -8 -5 -11 -10 -5 -10 5 0 3
-6 -4 -12 -10 -11 -15 -9 -24 7 -11 19 -11 19 -18 -5 -7 -24 -7 -24 -8 -2 -1
13 -11 33 -23 45 -27 26 -34 101 -9 92 11 -4 10 0 -3 14 -13 14 -14 21 -5 26
7 5 9 23 5 51 -4 29 -2 44 5 44 6 0 9 6 6 13 -2 6 2 19 11 27 14 12 15 11 10
-7 -3 -11 -2 -27 3 -34 6 -10 9 -7 9 11 1 25 1 25 10 3 5 -13 12 -23 16 -23 3
0 3 7 0 16 -3 9 -2 12 5 9 5 -4 15 7 22 24 6 17 13 31 15 31 2 0 3 -21 2 -47z
m-30 21 c0 -8 -5 -12 -10 -9 -6 4 -8 11 -5 16 9 14 15 11 15 -7z m67 -16 c-3
-8 -6 -5 -6 6 -1 11 2 17 5 13 3 -3 4 -12 1 -19z m430 -14 c-9 -9 -28 6 -21
18 4 6 10 6 17 -1 6 -6 8 -13 4 -17z m81 8 c2 -7 -3 -12 -12 -12 -9 0 -16 7
-16 16 0 17 22 14 28 -4z m82 2 c0 -17 -22 -14 -28 4 -2 7 3 12 12 12 9 0 16
-7 16 -16z m-240 -4 c0 -5 -2 -10 -4 -10 -3 0 -8 5 -11 10 -3 6 -1 10 4 10 6
0 11 -4 11 -10z m-363 -49 c-4 -19 -2 -31 6 -35 7 -2 4 -5 -5 -5 -13 -1 -18 7
-18 27 0 26 7 42 18 42 2 0 2 -13 -1 -29z m198 -27 c8 -3 11 -12 8 -20 -6 -16
17 -16 28 -1 3 5 9 2 12 -6 4 -11 0 -15 -14 -12 -10 2 -19 -1 -19 -6 0 -5 -6
-4 -14 3 -7 7 -11 19 -9 25 3 7 0 13 -6 13 -6 0 -10 12 -10 28 2 24 2 24 6 4
3 -13 11 -26 18 -28z m-145 16 c0 -5 -5 -10 -11 -10 -5 0 -7 5 -4 10 3 6 8 10
11 10 2 0 4 -4 4 -10z m-1796 -62 c-3 -5 -10 -5 -16 -2 -6 4 -8 1 -6 -7 3 -8
9 -13 14 -12 5 1 10 -11 10 -25 1 -15 -1 -21 -3 -13 -5 11 -7 11 -15 0 -6 -10
-7 -7 -3 10 4 14 3 21 -3 18 -7 -5 -10 34 -3 39 8 5 29 -1 25 -8z m-104 -32
c7 -17 9 -17 9 -3 1 9 6 17 12 17 5 0 8 -4 5 -9 -4 -5 7 -22 22 -38 26 -25 29
-34 27 -91 -1 -35 -6 -67 -11 -72 -5 -5 -8 14 -6 50 3 41 -1 65 -12 82 -9 14
-13 28 -9 33 5 4 3 5 -4 1 -9 -5 -9 -14 -3 -32 12 -32 13 -64 1 -64 -5 0 -8
11 -8 24 0 22 -6 32 -40 71 -16 17 -18 69 -2 60 6 -4 14 -17 19 -29z m136 -7
c1 -20 -2 -26 -7 -17 -11 16 -12 48 -1 48 4 0 7 -14 8 -31z m1943 10 c-9 -6
-10 -12 -4 -16 11 -8 55 -80 55 -89 0 -3 -11 6 -24 18 -13 13 -23 25 -23 28 1
3 -4 15 -11 27 -13 24 -6 57 10 47 6 -4 5 -10 -3 -15z m-1799 1 c0 -5 -5 -10
-11 -10 -5 0 -7 5 -4 10 3 6 8 10 11 10 2 0 4 -4 4 -10z m2200 -20 c0 -6 -7
-10 -15 -10 -8 0 -15 2 -15 4 0 2 -3 12 -7 21 -5 15 -3 16 15 6 12 -7 22 -16
22 -21z m-333 -12 c-3 -7 -5 -2 -5 12 0 14 2 19 5 13 2 -7 2 -19 0 -25z m91
13 c3 -8 -1 -12 -9 -9 -7 2 -15 10 -17 17 -3 8 1 12 9 9 7 -2 15 -10 17 -17z
m76 -2 c-8 -14 -24 -10 -24 6 0 9 6 12 15 9 8 -4 12 -10 9 -15z m78 6 c0 -5
-5 -11 -11 -13 -6 -2 -11 4 -11 13 0 9 5 15 11 13 6 -2 11 -8 11 -13z m-2082
-83 c0 -20 -4 -31 -10 -27 -5 3 -10 1 -10 -4 0 -6 7 -11 15 -11 8 0 15 -5 15
-11 0 -6 -6 -9 -13 -6 -8 3 -14 -1 -14 -9 0 -9 6 -13 16 -9 9 3 5 -3 -9 -14
-14 -11 -27 -17 -30 -14 -3 3 0 8 6 10 7 2 8 19 3 51 -11 69 -11 76 4 66 7 -5
6 -2 -3 6 -8 8 -14 24 -12 34 4 18 5 18 23 -5 10 -13 19 -39 19 -57z m1540 56
c0 -16 -3 -19 -11 -11 -6 6 -8 16 -5 22 11 17 16 13 16 -11z m-1661 -117 c1
-48 -7 -51 -13 -5 -3 16 -9 42 -15 57 -6 16 -11 40 -10 55 1 47 38 -56 38
-107z m1959 83 c-4 -3 -12 5 -18 18 -12 22 -12 22 6 6 10 -10 15 -20 12 -24z
m-2025 6 c3 -11 3 -20 1 -20 -2 0 -8 9 -14 20 -6 11 -7 20 -2 20 6 0 12 -9 15
-20z m1992 -50 c3 -6 -1 -7 -9 -4 -18 7 -21 14 -7 14 6 0 13 -4 16 -10z m-281
-16 c3 -8 2 -12 -4 -9 -5 3 -16 -7 -25 -22 -9 -15 -13 -19 -10 -8 4 11 10 28
12 38 7 21 19 22 27 1z m316 -24 c10 -10 15 -22 11 -25 -5 -2 -16 6 -25 20
-20 30 -13 32 14 5z m-180 6 c0 -2 -7 -7 -16 -10 -8 -3 -12 -2 -9 4 6 10 25
14 25 6z m-1932 -47 c-1 -16 -7 -34 -15 -40 -7 -6 -13 -18 -13 -27 0 -8 -3
-12 -7 -9 -3 4 -12 2 -20 -4 -9 -9 -13 -8 -13 0 0 6 4 11 9 11 12 0 44 87 36
100 -3 5 0 7 9 4 9 -3 14 -18 14 -35z m-48 -12 c0 -2 -12 -14 -27 -28 l-28
-24 24 28 c23 25 31 32 31 24z m1771 -34 c13 -16 12 -17 -3 -4 -10 7 -18 15
-18 17 0 8 8 3 21 -13z m-1631 -47 c0 -2 -8 -10 -17 -17 -16 -13 -17 -12 -4 4
13 16 21 21 21 13z m395 -186 l20 -25 -22 19 c-13 11 -23 24 -23 29 0 6 1 8 3
6 1 -2 11 -15 22 -29z m758 15 c-3 -9 -8 -14 -10 -11 -3 3 -2 9 2 15 9 16 15
13 8 -4z m692 -45 c3 -6 3 -10 -2 -10 -11 1 -43 26 -43 34 0 9 37 -11 45 -24z
m-1045 10 c21 -13 7 -22 -25 -14 -20 5 -23 9 -13 15 16 11 20 11 38 -1z m-60
-9 c0 -5 -7 -12 -16 -15 -14 -5 -15 -4 -4 9 14 17 20 19 20 6z m-446 -36 c21
-32 16 -32 -14 0 -13 14 -19 25 -13 25 6 0 18 -11 27 -25z"/>
<path d="M1908 3303 c7 -3 16 -2 19 1 4 3 -2 6 -13 5 -11 0 -14 -3 -6 -6z"/>
<path d="M1935 3280 c3 -5 8 -10 11 -10 2 0 4 5 4 10 0 6 -5 10 -11 10 -5 0
-7 -4 -4 -10z"/>
<path d="M1860 3253 c1 -18 18 -35 24 -24 4 6 4 16 1 21 -7 12 -25 13 -25 3z"/>
<path d="M1692 3168 c8 -21 7 -33 -3 -46 -13 -15 -12 -16 3 -4 20 16 22 79 3
79 -10 0 -10 -8 -3 -29z"/>
<path d="M1774 3131 c-1 -32 1 -40 7 -26 10 26 11 63 2 68 -5 3 -9 -16 -9 -42z"/>
<path d="M2020 3160 c0 -5 4 -10 9 -10 6 0 13 5 16 10 3 6 -1 10 -9 10 -9 0
-16 -4 -16 -10z"/>
<path d="M2076 3115 c-3 -8 -3 -15 0 -15 3 0 12 7 20 15 13 13 13 15 1 15 -8
0 -17 -7 -21 -15z"/>
<path d="M1616 3065 c4 -8 10 -15 14 -15 5 0 11 -8 13 -17 4 -15 5 -15 6 2 0
11 -8 26 -19 32 -16 11 -18 10 -14 -2z"/>
<path d="M2144 3045 c-10 -8 -14 -15 -8 -15 5 0 16 6 23 13 12 10 13 9 7 -7
-5 -15 -4 -17 7 -8 8 7 18 8 23 4 4 -4 2 1 -5 11 -16 21 -22 21 -47 2z"/>
<path d="M2273 3005 c0 -22 2 -30 4 -17 2 12 2 30 0 40 -3 9 -5 -1 -4 -23z"/>
<path d="M1965 2989 c-4 -6 -5 -12 -2 -15 2 -3 7 2 10 11 7 17 1 20 -8 4z"/>
<path d="M2220 2988 c0 -4 7 -8 15 -8 8 0 15 4 15 8 0 5 -7 9 -15 9 -8 0 -15
-4 -15 -9z"/>
<path d="M2280 2921 c0 -6 -5 -10 -11 -8 -6 1 -13 -9 -15 -23 -3 -21 -2 -22 6
-8 6 9 19 15 29 13 13 -2 18 2 17 13 -3 18 -26 30 -26 13z"/>
<path d="M2206 2896 c6 -15 4 -17 -6 -11 -9 6 -11 4 -5 -4 5 -9 10 -10 18 -2
8 8 7 14 -2 24 -10 10 -11 8 -5 -7z"/>
<path d="M2170 2850 c0 -19 3 -21 12 -12 9 9 9 15 0 24 -9 9 -12 7 -12 -12z"/>
<path d="M2370 2851 c0 -5 7 -12 16 -15 14 -5 15 -4 4 9 -14 17 -20 19 -20 6z"/>
<path d="M2333 2834 c4 -4 2 -13 -4 -21 -7 -8 -8 -13 -1 -13 5 0 15 6 21 14 9
11 8 15 -6 20 -10 4 -14 4 -10 0z"/>
<path d="M2366 2805 c-3 -8 -14 -15 -25 -15 -13 0 -18 -5 -15 -14 4 -11 10
-11 29 -2 13 6 21 14 19 17 -2 4 1 9 8 11 8 3 9 6 1 11 -6 4 -13 0 -17 -8z"/>
<path d="M2355 2670 c3 -5 8 -10 11 -10 2 0 4 5 4 10 0 6 -5 10 -11 10 -5 0
-7 -4 -4 -10z"/>
<path d="M2191 2574 c0 -11 3 -14 6 -6 3 7 2 16 -1 19 -3 4 -6 -2 -5 -13z"/>
<path d="M1631 2440 c0 -8 4 -22 9 -30 12 -18 12 -2 0 25 -6 13 -9 15 -9 5z"/>
<path d="M1666 2378 c3 -4 9 -8 15 -8 5 0 9 4 9 8 0 5 -7 9 -15 9 -8 0 -12 -4
-9 -9z"/>
<path d="M2420 2243 c0 -6 -3 -18 -6 -27 -3 -9 -2 -16 4 -16 15 0 24 32 12 44
-7 7 -10 7 -10 -1z"/>
<path d="M2431 2054 c0 -11 3 -14 6 -6 3 7 2 16 -1 19 -3 4 -6 -2 -5 -13z"/>
<path d="M2265 1750 c-3 -5 -2 -10 4 -10 5 0 13 5 16 10 3 6 2 10 -4 10 -5 0
-13 -4 -16 -10z"/>
<path d="M2314 1724 c-1 -13 2 -21 7 -18 11 6 12 31 2 37 -5 3 -9 -6 -9 -19z"/>
<path d="M2510 2201 c0 -6 4 -13 10 -16 6 -3 7 1 4 9 -7 18 -14 21 -14 7z"/>
<path d="M2590 2085 c0 -5 5 -17 10 -25 5 -8 10 -10 10 -5 0 6 -5 17 -10 25
-5 8 -10 11 -10 5z"/>
<path d="M1800 1889 c0 -5 5 -7 10 -4 6 3 10 8 10 11 0 2 -4 4 -10 4 -5 0 -10
-5 -10 -11z"/>
<path d="M2826 1033 c9 -51 16 -56 12 -9 -1 20 -6 40 -11 43 -4 3 -5 -12 -1
-34z"/>
<path d="M2850 989 c0 -5 5 -7 10 -4 6 3 10 8 10 11 0 2 -4 4 -10 4 -5 0 -10
-5 -10 -11z"/>
<path d="M2050 1120 c0 -5 5 -10 11 -10 5 0 7 5 4 10 -3 6 -8 10 -11 10 -2 0
-4 -4 -4 -10z"/>
<path d="M2985 580 c-3 -5 -1 -10 4 -10 6 0 11 5 11 10 0 6 -2 10 -4 10 -3 0
-8 -4 -11 -10z"/>
<path d="M2962 564 c10 -10 20 -16 22 -13 3 3 -5 11 -17 18 -21 13 -21 12 -5
-5z"/>
<path d="M2850 531 c0 -16 -5 -31 -12 -33 -7 -3 -6 -7 5 -11 14 -5 17 0 17 33
0 22 -2 40 -5 40 -3 0 -5 -13 -5 -29z"/>
<path d="M3333 2946 c-16 -20 -59 -103 -94 -184 -35 -81 -89 -199 -120 -262
l-56 -115 -6 -120 c-7 -149 -19 -207 -64 -313 -56 -131 -37 -122 83 36 84 111
112 178 124 302 21 207 30 248 100 458 39 117 70 218 68 224 -2 6 -18 -6 -35
-26z"/>
<path d="M2915 2611 c-3 -15 -26 -63 -51 -104 -25 -42 -58 -107 -72 -144 -24
-60 -27 -81 -26 -178 1 -76 6 -123 17 -154 12 -31 17 -77 17 -165 1 -135 3
-135 53 -6 20 52 26 90 30 187 5 110 10 135 47 240 23 65 44 131 47 146 6 29
-35 207 -48 207 -4 0 -10 -13 -14 -29z"/>
<path d="M2742 1446 c7 -8 15 -12 17 -11 5 6 -10 25 -20 25 -5 0 -4 -6 3 -14z"/>
</g>
</svg>
